<svg width="16" height="16" viewBox="0 0 16 16" fill="none" xmlns="http://www.w3.org/2000/svg">
<path fill-rule="evenodd" clip-rule="evenodd" d="M11.3335 2.66653V1.99992C11.3335 1.63173 11.632 1.33325 12.0001 1.33325C12.3683 1.33325 12.6668 1.63173 12.6668 1.99992V2.66653H13.3334C14.438 2.66653 15.3334 3.56196 15.3334 4.66653V6.66653V7.99986V11.3332C15.3334 13.5423 13.5426 15.3332 11.3334 15.3332H4.66675C2.45761 15.3332 0.666748 13.5423 0.666748 11.3332V7.99986V6.66653V4.66653C0.666748 3.56196 1.56218 2.66653 2.66675 2.66653H4.00002V1.99992C4.00002 1.63173 4.2985 1.33325 4.66669 1.33325C5.03488 1.33325 5.33336 1.63173 5.33336 1.99992V2.66653H11.3335ZM2.00002 7.99986V11.3331C2.00002 12.8059 3.19393 13.9998 4.66669 13.9998H11.3334C12.8061 13.9998 14 12.8059 14 11.3331V7.99986H2.00002ZM2.66669 3.9998H4.00002V3.99992C4.00002 4.36811 4.2985 4.66659 4.66669 4.66659C5.03488 4.66659 5.33336 4.36811 5.33336 3.99992V3.9998H11.3335V3.99992C11.3335 4.36811 11.632 4.66659 12.0001 4.66659C12.3683 4.66659 12.6668 4.36811 12.6668 3.99992V3.9998H13.3334C13.7015 3.9998 14 4.29828 14 4.66647V6.66647H2.00002V4.66647C2.00002 4.29828 2.2985 3.9998 2.66669 3.9998Z" fill="#696D8C"/>
</svg>
